<?xml version="1.0" standalone="no"?><!DOCTYPE svg PUBLIC "-//W3C//DTD SVG 1.1//EN" "http://www.w3.org/Graphics/SVG/1.1/DTD/svg11.dtd"><svg t="1601717675818" class="icon" viewBox="0 0 1024 1024" version="1.1" xmlns="http://www.w3.org/2000/svg" p-id="889" xmlns:xlink="http://www.w3.org/1999/xlink" width="200" height="200"><defs><style type="text/css"></style></defs><path d="M424.96 349.184c-3.072 0-7.168-2.048-9.216-5.12-3.072-5.12-1.024-11.264 3.072-14.336 13.312-8.192 20.48-14.336 20.48-19.456 1.024-7.168-10.24-19.456-20.48-28.672-12.288-12.288-13.312-22.528-11.264-29.696 5.12-20.48 31.744-29.696 37.888-30.72 5.12-2.048 11.264 1.024 13.312 7.168s-1.024 11.264-7.168 13.312c-9.216 3.072-22.528 10.24-23.552 16.384-1.024 3.072 3.072 8.192 6.144 10.24 17.408 16.384 28.672 30.72 26.624 45.056-2.048 15.36-17.408 27.648-30.72 34.816-1.024 1.024-3.072 1.024-5.12 1.024zM506.88 349.184c-3.072 0-7.168-2.048-9.216-5.12-3.072-5.12-1.024-11.264 3.072-14.336 13.312-8.192 20.48-14.336 20.48-19.456 1.024-7.168-10.24-19.456-20.48-28.672-12.288-12.288-13.312-22.528-11.264-29.696 5.12-20.48 31.744-29.696 37.888-30.72 5.12-2.048 11.264 1.024 13.312 7.168 2.048 5.12-1.024 11.264-7.168 13.312-9.216 3.072-22.528 10.24-23.552 16.384-1.024 3.072 3.072 8.192 6.144 10.24 17.408 16.384 28.672 30.72 26.624 45.056-2.048 15.36-17.408 27.648-30.72 34.816-1.024 1.024-3.072 1.024-5.12 1.024zM582.656 349.184c-3.072 0-7.168-2.048-9.216-5.12-3.072-5.12-1.024-11.264 3.072-14.336 13.312-8.192 20.48-14.336 20.48-19.456 1.024-7.168-10.24-19.456-20.48-28.672-12.288-12.288-13.312-22.528-11.264-29.696 5.12-20.48 31.744-29.696 37.888-30.72 5.12-2.048 11.264 1.024 13.312 7.168 2.048 5.12-1.024 11.264-7.168 13.312-9.216 3.072-22.528 10.24-23.552 16.384-1.024 3.072 3.072 8.192 6.144 10.24 17.408 16.384 28.672 30.72 26.624 45.056-2.048 15.36-17.408 27.648-30.72 34.816-1.024 1.024-3.072 1.024-5.12 1.024zM520.192 738.304c-144.384 0-263.168-114.688-265.216-256 0-7.168 6.144-13.312 13.312-13.312h503.808c7.168 0 13.312 6.144 13.312 13.312-2.048 141.312-120.832 256-265.216 256zM275.456 489.472c6.144 126.976 113.664 228.352 244.736 228.352s238.592-101.376 243.712-228.352H275.456z" fill="#231916" p-id="890"></path><path d="M408.576 489.472c-4.096 0-7.168-1.024-10.24-4.096-3.072-3.072-4.096-6.144-4.096-10.24V471.04l19.456-68.608c1.024-7.168 7.168-11.264 14.336-11.264h189.44c7.168 0 13.312 5.12 14.336 11.264l19.456 70.656c1.024 8.192-5.12 15.36-13.312 16.384H408.576z m0-20.48z m24.576-57.344l-16.384 57.344h212.992l-16.384-57.344H433.152z m-5.12 0z m189.44 0zM408.576 817.152c-4.096 0-7.168-1.024-10.24-4.096s-4.096-6.144-4.096-10.24v-2.048l12.288-96.256 20.48 3.072-11.264 89.088h215.04l-12.288-91.136 20.48-3.072 12.288 98.304c0 4.096-1.024 8.192-3.072 11.264-2.048 3.072-6.144 5.12-10.24 5.12H408.576z m0-20.48z" fill="#231916" p-id="891"></path></svg>